<svg xmlns="http://www.w3.org/2000/svg" viewBox="0 0 1200 675" role="img" aria-labelledby="title desc">
  <title id="title">37. Medienfrühstück in Leipzig</title>
  <desc id="desc">Eventbild für den PROdigitalTV Rückblick 37. Medienfrühstück in Leipzig.</desc>
  <defs>
    <linearGradient id="bg" x1="0" y1="0" x2="1" y2="1">
      <stop offset="0" stop-color="#071a33"/>
      <stop offset="0.68" stop-color="#0f4f86"/>
      <stop offset="1" stop-color="#e30613"/>
    </linearGradient>
    <linearGradient id="card" x1="0" y1="0" x2="1" y2="1">
      <stop offset="0" stop-color="#ffffff" stop-opacity="0.16"/>
      <stop offset="1" stop-color="#ffffff" stop-opacity="0.04"/>
    </linearGradient>
  </defs>
  <rect width="1200" height="675" fill="url(#bg)"/>
  <path d="M0 482 C170 400 314 540 512 414 C728 276 878 326 1200 204 L1200 675 L0 675 Z" fill="#ffffff" opacity="0.12"/>
  <path d="M742 92 C892 76 1018 162 1072 286 C1118 394 1084 522 984 584" fill="none" stroke="#ffffff" stroke-opacity="0.2" stroke-width="28" stroke-linecap="round"/>
  <rect x="74" y="74" width="1052" height="527" rx="34" fill="url(#card)" stroke="#ffffff" stroke-opacity="0.22"/>
  <text x="92" y="138" fill="#ffffff" font-family="Arial, Helvetica, sans-serif" font-size="31" font-weight="800" letter-spacing="4">PROdigitalTV RUECKBLICK</text>
  <text x="92" y="204" fill="#e30613" font-family="Arial, Helvetica, sans-serif" font-size="68" font-weight="900">2015</text>
  <text x="92" y="254" fill="#dce9f8" font-family="Arial, Helvetica, sans-serif" font-size="29" font-weight="700">Leipzig</text>
  <text x="92" y="338" fill="#ffffff" font-family="Arial, Helvetica, sans-serif" font-size="46" font-weight="800">37. Medienfrühstück in Leipzig</text>
  <g transform="translate(824 382)">
    <rect x="0" y="0" width="210" height="126" rx="18" fill="#ffffff" opacity="0.14"/>
    <path d="M38 84 L83 42 L118 70 L145 48 L178 84" fill="none" stroke="#ffffff" stroke-width="12" stroke-linecap="round" stroke-linejoin="round"/>
    <circle cx="156" cy="37" r="14" fill="#e30613"/>
  </g>
</svg>
